HIERARCHY
ROOT Hips
{
    OFFSET 0.000000 0.000000 0.000000
    CHANNELS 6 Xposition Yposition Zposition Zrotation Xrotation Yrotation
    JOINT Spine
    {
        OFFSET -0.000000 14.517291 0.000000
        CHANNELS 3 Zrotation Xrotation Yrotation
        JOINT Spine1
        {
            OFFSET -0.000000 37.558300 0.000000
            CHANNELS 3 Zrotation Xrotation Yrotation
            JOINT Neck
            {
                OFFSET -0.000000 37.404057 3.400369
                CHANNELS 3 Zrotation Xrotation Yrotation
                JOINT Head
                {
                    OFFSET -0.000000 24.785618 -3.540803
                    CHANNELS 3 Zrotation Xrotation Yrotation
                    End Site
                    {
                        OFFSET -0.000000 35.408028 0.000000
                    }
                }
            }
            JOINT LeftShoulder
            {
                OFFSET 6.992933 33.973492 -0.192664
                CHANNELS 3 Zrotation Xrotation Yrotation
                JOINT LeftArm
                {
                    OFFSET 21.527611 0.000000 0.000000
                    CHANNELS 3 Zrotation Xrotation Yrotation
                    JOINT LeftForeArm
                    {
                        OFFSET 56.353916 0.000000 0.000000
                        CHANNELS 3 Zrotation Xrotation Yrotation
                        JOINT LeftHand
                        {
                            OFFSET 47.774071 0.000000 0.000000
                            CHANNELS 3 Zrotation Xrotation Yrotation
                            End Site
                            {
                                OFFSET 26.556021 0.000000 0.000000
                            }
                        }
                    }
                }
            }
            JOINT RightShoulder
            {
                OFFSET -7.065357 33.973492 -0.192664
                CHANNELS 3 Zrotation Xrotation Yrotation
                JOINT RightArm
                {
                    OFFSET -21.527611 0.000000 0.000000
                    CHANNELS 3 Zrotation Xrotation Yrotation
                    JOINT RightForeArm
                    {
                        OFFSET -56.353916 0.000000 0.000000
                        CHANNELS 3 Zrotation Xrotation Yrotation
                        JOINT RightHand
                        {
                            OFFSET -47.774071 0.000000 0.000000
                            CHANNELS 3 Zrotation Xrotation Yrotation
                            End Site
                            {
                                OFFSET -26.556021 0.000000 0.000000
                            }
                        }
                    }
                }
            }
        }
    }
    JOINT LeftUpLeg
    {
        OFFSET 17.704014 0.000000 0.000000
        CHANNELS 3 Zrotation Xrotation Yrotation
        JOINT LeftLeg
        {
            OFFSET -0.000000 -81.181816 0.000000
            CHANNELS 3 Zrotation Xrotation Yrotation
            JOINT LeftFoot
            {
                OFFSET -0.000000 -62.821102 0.000000
                CHANNELS 3 Zrotation Xrotation Yrotation
                JOINT LeftToeBase
                {
                    OFFSET -0.000000 -11.507608 26.556021
                    CHANNELS 3 Zrotation Xrotation Yrotation
                    End Site
                    {
                        OFFSET -0.000000 0.000000 7.081605
                    }
                }
            }
        }
    }
    JOINT RightUpLeg
    {
        OFFSET -17.704014 0.000000 0.000000
        CHANNELS 3 Zrotation Xrotation Yrotation
        JOINT RightLeg
        {
            OFFSET -0.000000 -81.181816 0.000000
            CHANNELS 3 Zrotation Xrotation Yrotation
            JOINT RightFoot
            {
                OFFSET -0.000000 -62.821102 0.000000
                CHANNELS 3 Zrotation Xrotation Yrotation
                JOINT RightToeBase
                {
                    OFFSET -0.000000 -11.507608 26.556021
                    CHANNELS 3 Zrotation Xrotation Yrotation
                    End Site
                    {
                        OFFSET -0.000000 0.000000 7.081605
                    }
                }
            }
        }
    }
}
MOTION
Frames:    5
Frame Time:    0.008333
-27.093786    152.830490    -32.650532    0.334261    1.685279    17.844831    -2.266592    2.798138    4.767060    -4.445995    -0.592632    1.548053    -0.325161    4.468967    -12.337626    13.777393    -8.503394    -9.867960    2.389658    5.845058    -9.218021    -38.565765    15.468021    -55.231613    -3.726972    -26.997356    -123.758743    -5.385435    -32.683964    -9.014802    -9.223839    4.939198    -2.199180    14.910508    -1.904609    20.597872    -5.927644    -10.299964    80.170029    4.335143    -4.322206    26.791424    0.195217    -32.597549    -26.105112    -11.196364    23.605658    -23.636251    -9.389736    -0.397887    33.678143    0.000000    0.000000    0.000000    0.941521    7.795067    -20.701511    2.883515    25.578032    -4.992022    1.378767    -30.639681    -9.051573    0.000000    0.000000    0.000000    
-27.094980    152.835709    -32.643543    0.332287    1.681385    17.852930    -2.272981    2.800006    4.772331    -4.447285    -0.605606    1.549244    -0.309947    4.471717    -12.327822    13.778037    -8.490768    -9.860694    2.397623    5.867663    -9.218223    -38.573566    15.477978    -55.230072    -3.730206    -26.974112    -123.756073    -5.408322    -32.665508    -9.008535    -9.190014    4.938507    -2.201329    14.947263    -2.241660    20.584410    -5.619584    -9.868330    80.261719    4.227258    -4.162729    26.791971    0.195191    -32.588440    -26.114586    -11.197362    23.596024    -23.626879    -9.396289    -0.395801    33.681026    0.000000    0.000000    0.000000    0.951223    7.802346    -20.682062    2.882227    25.573795    -5.004195    1.384690    -30.630133    -9.041387    0.000000    0.000000    0.000000    
-27.097937    152.843124    -32.639343    0.327079    1.679350    17.865616    -2.276833    2.803287    4.772466    -4.445599    -0.617100    1.548780    -0.287711    4.454190    -12.331169    13.760251    -8.456112    -9.874454    2.397652    5.867948    -9.216970    -38.597908    15.478733    -55.210854    -3.747464    -26.916080    -123.765984    -5.381046    -32.642056    -8.987293    -9.167553    4.944554    -2.213536    14.960233    -2.219989    20.583353    -5.624885    -9.883665    80.271645    4.244589    -4.169172    26.782555    0.192429    -32.584229    -26.125376    -11.187658    23.591581    -23.646976    -9.405918    -0.394155    33.691196    0.000000    0.000000    0.000000    0.962502    7.808871    -20.669971    2.898576    25.557766    -5.007554    1.372095    -30.609282    -9.090262    0.000000    0.000000    0.000000    
-27.100826    152.848343    -32.634583    0.324123    1.678316    17.866503    -2.285319    2.805364    4.782996    -4.433174    -0.632595    1.551696    -0.296578    4.471187    -12.329974    13.775574    -8.465104    -9.867943    2.391519    5.871486    -9.210566    -38.607475    15.486757    -55.197372    -3.772492    -26.877819    -123.777786    -5.378614    -32.647495    -8.979614    -9.158989    4.944022    -2.213619    14.971829    -2.211922    20.567202    -5.619773    -9.871940    80.279953    4.255655    -4.157200    26.803598    0.199672    -32.579304    -26.129879    -11.195887    23.577045    -23.632101    -9.404176    -0.381023    33.696663    0.000000    0.000000    0.000000    0.972450    7.812945    -20.658043    2.894739    25.545853    -5.008673    1.356259    -30.595339    -9.101804    0.000000    0.000000    0.000000    
-27.102562    152.856689    -32.629620    0.322189    1.667931    17.875553    -2.280132    2.819720    4.789604    -4.434153    -0.646427    1.553277    -0.289642    4.469145    -12.328935    13.761456    -8.459530    -9.871288    2.386189    5.870503    -9.210811    -38.619362    15.481427    -55.173183    -3.787546    -26.834740    -123.790108    -5.373960    -32.632530    -8.977823    -9.154452    4.948501    -2.226448    14.986277    -2.209007    20.563402    -5.617436    -9.860768    80.294167    4.259781    -4.146414    26.782305    0.199116    -32.566029    -26.126076    -11.182690    23.574509    -23.648388    -9.406993    -0.371716    33.692062    0.000000    0.000000    0.000000    0.985627    7.826529    -20.656658    2.891090    25.531525    -5.012690    1.361444    -30.572752    -9.114553    0.000000    0.000000    0.000000    
